<?xml version="1.0" encoding="UTF-8" standalone="no"?>
<svg
   xmlns:dc="http://purl.org/dc/elements/1.1/"
   xmlns:cc="http://creativecommons.org/ns#"
   xmlns:rdf="http://www.w3.org/1999/02/22-rdf-syntax-ns#"
   xmlns:svg="http://www.w3.org/2000/svg"
   xmlns="http://www.w3.org/2000/svg"
   xmlns:xlink="http://www.w3.org/1999/xlink"
   xmlns:sodipodi="http://sodipodi.sourceforge.net/DTD/sodipodi-0.dtd"
   xmlns:inkscape="http://www.inkscape.org/namespaces/inkscape"
   width="758"
   height="590"
   viewBox="0 0 758 590"
   fill="none"
   aria-hidden="true"
   version="1.1"
   id="svg212"
   sodipodi:docname="process.svg"
   inkscape:version="1.0.2-2 (e86c870879, 2021-01-15)">
  <animateMotion
     xlink:href="#order"
     dur="1s"
     begin="0"
     path="m0,0 50,-50 100,-20 120,50 100,120"
     repeatCount="indefinite" />
  <metadata
     id="metadata218">
    <rdf:RDF>
      <cc:Work
         rdf:about="">
        <dc:format>image/svg+xml</dc:format>
        <dc:type
           rdf:resource="http://purl.org/dc/dcmitype/StillImage" />
      </cc:Work>
    </rdf:RDF>
  </metadata>
  <defs
     id="defs216" />
  <sodipodi:namedview
     pagecolor="#ffffff"
     bordercolor="#666666"
     borderopacity="1"
     objecttolerance="10"
     gridtolerance="10"
     guidetolerance="10"
     inkscape:pageopacity="0"
     inkscape:pageshadow="2"
     inkscape:window-width="1366"
     inkscape:window-height="741"
     id="namedview214"
     showgrid="false"
     inkscape:zoom="0.96779661"
     inkscape:cx="346.45183"
     inkscape:cy="97.179097"
     inkscape:window-x="-9"
     inkscape:window-y="-9"
     inkscape:window-maximized="1"
     inkscape:current-layer="g997"
     inkscape:document-rotation="0" />
  <g
     id="g997"
     transform="matrix(1.1219101,0,0,1.1219101,-130.12345,4.4750513)">
    <g
       id="g175"
       transform="translate(0,17.82674)">
      <path
         opacity="0.5"
         d="M 419.298,173.19201 C 658.698,42.091922 750.198,62.392022 757.698,293.29201 765.198,524.19201 554.798,530.09201 399.698,505.19201 244.498,480.29201 182.698,466.59201 161.198,364.79201 143.898,282.69201 112.898,242.39201 252.098,186.09201 285.598,172.59201 370.398,195.39201 419.298,173.19201 Z"
         fill="#e6eeff"
         id="path2" />
      <path
         d="M 442.698,451.444 C 557.573,451.444 650.698,358.319 650.698,243.444 650.698,128.569 557.573,35.4441 442.698,35.4441 327.823,35.4441 234.698,128.569 234.698,243.444 234.698,358.319 327.823,451.444 442.698,451.444 Z"
         stroke="#1cb5b5"
         stroke-width="2"
         stroke-linecap="round"
         stroke-dasharray="11, 11"
         id="path4" />
      <path
         d="M 156.596,135 H 297.596 C 302.596,135 306.596,139 306.596,144 V 405 C 306.596,410 302.596,414 297.596,414 H 156.596 C 151.596,414 147.596,410 147.596,405 V 144 C 147.596,139.1 151.696,135 156.596,135 Z"
         fill="#ffffff"
         stroke="#1CB5B5"
         stroke-width="4.359"
         stroke-miterlimit="10"
         id="path6"
         style="stroke:#ff0000;stroke-opacity:1" />
      <path
         opacity="0.394"
         d="M 227.196,397.9 C 232.277,397.9 236.396,393.781 236.396,388.7 236.396,383.619 232.277,379.5 227.196,379.5 222.115,379.5 217.996,383.619 217.996,388.7 217.996,393.781 222.115,397.9 227.196,397.9 Z"
         fill="#6ab2af"
         id="path8" />
      <path
         d="M 162.896,188 H 219.796 C 221.796,188 223.496,189.7 223.496,191.7 V 248.6 C 223.496,250.6 221.796,252.3 219.796,252.3 H 162.896 C 160.896,252.3 159.196,250.6 159.196,248.6 V 191.7 C 159.196,189.6 160.896,188 162.896,188 Z"
         stroke="#1b99f5"
         stroke-width="0.752"
         stroke-miterlimit="10"
         stroke-linecap="round"
         id="path10" />
      <path
         d="M 167.82,194.524 C 168.52,194.524 169.12,195.124 169.12,195.824 169.12,196.524 168.52,197.124 167.82,197.124 167.12,197.124 166.52,196.524 166.52,195.824 166.42,195.124 167.02,194.524 167.82,194.524 Z"
         fill="#1b99f5"
         id="path12" />
      <path
         opacity="0.5"
         d="M 234.496,188 H 291.396 C 293.396,188 295.096,189.7 295.096,191.7 V 248.6 C 295.096,250.6 293.396,252.3 291.396,252.3 H 234.496 C 232.496,252.3 230.796,250.6 230.796,248.6 V 191.7 C 230.796,189.6 232.496,188 234.496,188 Z"
         stroke="#d2d2d2"
         stroke-width="1.09"
         stroke-miterlimit="10"
         id="path14" />
      <path
         opacity="0.5"
         d="M 239.396,192.5 C 241.296,192.5 242.796,194 242.796,195.9 242.796,197.8 241.296,199.3 239.396,199.3 237.496,199.3 235.996,197.8 235.996,195.9 235.996,194 237.596,192.5 239.396,192.5 Z"
         stroke="#9e9d9d"
         stroke-width="1.09"
         stroke-miterlimit="10"
         id="path16" />
      <path
         opacity="0.5"
         d="M 162.896,259.4 H 219.796 C 221.796,259.4 223.496,261.1 223.496,263.1 V 320 C 223.496,322 221.796,323.7 219.796,323.7 H 162.896 C 160.896,323.7 159.196,322 159.196,320 V 263.1 C 159.196,261 160.896,259.4 162.896,259.4 Z"
         stroke="#d2d2d2"
         stroke-width="1.09"
         stroke-miterlimit="10"
         id="path18" />
      <path
         opacity="0.5"
         d="M 167.796,263.9 C 169.696,263.9 171.196,265.4 171.196,267.3 171.196,269.2 169.696,270.7 167.796,270.7 165.896,270.7 164.396,269.2 164.396,267.3 164.396,265.4 165.996,263.9 167.796,263.9 Z"
         stroke="#9e9d9d"
         stroke-width="1.09"
         stroke-miterlimit="10"
         id="path20" />
      <path
         opacity="0.5"
         d="M 234.496,259.4 H 291.396 C 293.396,259.4 295.096,261.1 295.096,263.1 V 320 C 295.096,322 293.396,323.7 291.396,323.7 H 234.496 C 232.496,323.7 230.796,322 230.796,320 V 263.1 C 230.796,261 232.496,259.4 234.496,259.4 Z"
         stroke="#d2d2d2"
         stroke-width="1.09"
         stroke-miterlimit="10"
         id="path22" />
      <path
         opacity="0.5"
         d="M 239.396,263.9 C 241.296,263.9 242.796,265.4 242.796,267.3 242.796,269.2 241.296,270.7 239.396,270.7 237.496,270.7 235.996,269.2 235.996,267.3 235.996,265.4 237.596,263.9 239.396,263.9 Z M 167.796,192.5 C 169.696,192.5 171.196,194 171.196,195.9 171.196,197.8 169.696,199.3 167.796,199.3 165.896,199.3 164.396,197.8 164.396,195.9 164.396,194 165.996,192.5 167.796,192.5 Z"
         stroke="#9e9d9d"
         stroke-width="1.09"
         stroke-miterlimit="10"
         id="path24" />
      <path
         d="M 213.272,211.435 C 211.072,209.635 205.872,218.535 198.372,219.635 190.872,220.735 183.472,217.235 181.872,214.735 180.272,212.235 177.172,206.535 177.172,206.535 L 173.872,208.335 178.172,212.935 C 178.172,212.935 176.772,213.635 177.572,217.135 178.372,220.635 183.372,229.835 197.672,229.035 211.972,228.235 215.872,213.635 213.272,211.435 Z"
         fill="#e4a824"
         id="path26" />
      <path
         d="M 177.172,206.535 180.372,212.335 175.772,207.335 Z M 213.272,211.435 C 213.272,211.435 211.672,221.435 198.272,224.635 190.072,226.635 182.772,221.335 180.872,219.035 177.872,215.135 178.172,212.935 178.172,212.935 178.172,212.935 176.772,213.535 177.572,217.035 178.372,220.535 183.372,229.735 197.672,228.935 211.972,228.135 215.872,213.635 213.272,211.435 Z"
         fill="#d08e29"
         id="path28" />
      <path
         d="M 210.888,220.356 C 209.188,218.156 201.988,225.356 194.288,224.656 186.588,223.956 180.288,218.856 179.188,216.156 178.088,213.456 176.488,207.156 176.488,207.156 L 172.788,208.156 175.988,213.556 C 175.988,213.556 174.488,213.856 174.488,217.456 174.488,221.056 177.288,231.056 191.688,233.556 206.088,236.056 212.988,223.056 210.888,220.356 Z"
         fill="#fbcd09"
         id="path30" />
      <path
         d="M 176.488,207.156 178.288,213.456 174.788,207.556 Z"
         fill="#d08e29"
         id="path32" />
      <path
         d="M 210.888,220.356 C 210.888,220.356 207.088,229.556 193.088,229.556 184.688,229.556 178.588,222.756 177.288,220.056 175.188,215.556 175.988,213.456 175.988,213.456 175.988,213.456 174.488,213.756 174.488,217.356 174.488,220.956 177.288,230.956 191.688,233.456 206.088,235.956 212.988,223.056 210.888,220.356 Z"
         fill="#e4a824"
         id="path34" />
      <path
         d="M 260.007,199.6 H 265.507 C 268.607,199.6 271.207,202.2 271.207,205.3 V 240.7 C 271.207,241.8 270.307,242.7 269.207,242.7 H 256.207 C 255.107,242.7 254.207,241.8 254.207,240.7 V 205.3 C 254.307,202.1 256.907,199.6 260.007,199.6 Z"
         fill="#85ced9"
         id="path36" />
      <path
         d="M 264.807,196.8 H 260.607 V 202.4 H 264.807 Z"
         fill="#85ced9"
         id="path38" />
      <path
         d="M 260.607,195.8 H 264.907 C 265.207,195.8 265.407,196 265.407,196.3 V 198.7 H 260.007 V 196.3 C 260.107,196.1 260.307,195.8 260.607,195.8 Z M 271.207,213.1 H 254.307 V 221.3 H 271.207 Z"
         fill="#3d5aa8"
         id="path40" />
      <path
         opacity="0.18"
         d="M 270.307,203.8 C 269.907,221.1 270.807,234.8 255.607,242.2 256.007,242.5 256.607,242.7 257.107,242.7 H 268.507 C 270.007,242.7 271.207,241.5 271.207,240 V 207.6 C 271.207,206.2 270.907,204.9 270.307,203.8 Z"
         fill="#85ced9"
         id="path42" />
      <path
         d="M 255.707,211.6 V 207.8 C 255.807,205.3 257.407,203 259.707,202"
         stroke="#b5e2eb"
         stroke-miterlimit="10"
         id="path44" />
      <path
         d="M 255.707,221.2 V 214.1"
         stroke="#5f9cd0"
         stroke-miterlimit="10"
         id="path46" />
      <path
         d="M 255.707,225.5 V 223.3"
         stroke="#b5e2eb"
         stroke-miterlimit="10"
         id="path48" />
      <path
         d="M 193.324,285.106 194.524,279.306 195.624,279.906 193.924,285.606 Z"
         fill="#c1872b"
         id="path50" />
      <path
         d="M 201.624,295.406 C 199.124,301.006 193.424,302.906 187.724,300.706 182.024,298.506 179.424,293.406 181.024,287.506 183.924,276.806 194.124,284.206 194.124,284.206 194.124,284.206 206.324,285.106 201.624,295.406 Z"
         fill="#c52026"
         id="path52" />
      <path
         d="M 191.424,301.606 C 185.724,299.406 183.124,294.306 184.724,288.406 185.924,283.806 188.524,282.606 191.024,282.606 187.824,281.306 182.924,280.706 181.024,287.606 179.424,293.506 182.024,298.606 187.724,300.806 188.924,301.206 190.224,301.506 191.424,301.606 Z"
         fill="#e4ede9"
         id="path54" />
      <path
         d="M 192.724,291.006 C 191.724,293.606 192.624,296.306 194.724,297.106 196.824,297.906 199.324,296.506 200.324,293.906 201.324,291.306 200.424,288.606 198.324,287.706 196.224,286.806 193.624,288.506 192.724,291.006 Z"
         fill="#ed3024"
         id="path56" />
      <path
         d="M 204.324,291.106 205.524,285.306 206.624,285.906 204.924,291.606 Z"
         fill="#c1872b"
         id="path58" />
      <path
         d="M 212.624,301.406 C 210.124,307.006 204.424,308.906 198.724,306.706 193.024,304.506 190.424,299.406 192.024,293.506 194.924,282.806 205.124,290.206 205.124,290.206 205.124,290.206 217.324,291.106 212.624,301.406 Z"
         fill="#c52026"
         id="path60" />
      <path
         d="M 202.424,307.606 C 196.724,305.406 194.124,300.306 195.724,294.406 196.924,289.806 199.524,288.606 202.024,288.606 198.824,287.306 193.924,286.706 192.024,293.606 190.424,299.506 193.024,304.606 198.724,306.806 199.924,307.206 201.224,307.506 202.424,307.606 Z"
         fill="#e4ede9"
         id="path62" />
      <path
         d="M 203.724,297.006 C 202.724,299.606 203.624,302.306 205.724,303.106 207.824,303.906 210.324,302.506 211.324,299.906 212.324,297.306 211.424,294.606 209.324,293.706 207.224,292.806 204.624,294.506 203.724,297.006 Z"
         fill="#ed3024"
         id="path64" />
      <path
         d="M 182.663,293.14 180.223,287.743 181.466,287.582 183.442,293.192 Z"
         fill="#c1872b"
         id="path66" />
      <path
         d="M 195.434,296.593 C 196.704,302.593 193.21,307.482 187.305,309.054 181.401,310.626 176.298,308.029 174.123,302.315 170.178,291.953 182.781,291.942 182.781,291.942 182.781,291.942 193.18,285.497 195.434,296.593 Z"
         fill="#c52026"
         id="path68" />
      <path
         d="M 190.828,307.606 C 184.923,309.178 179.821,306.581 177.646,300.867 175.912,296.44 177.31,293.941 179.332,292.471 175.979,293.3 171.662,295.696 174.182,302.396 176.357,308.109 181.459,310.707 187.364,309.135 188.57,308.753 189.798,308.231 190.828,307.606 Z"
         fill="#e4ede9"
         id="path70" />
      <path
         d="M 185.647,298.267 C 186.367,300.958 188.682,302.613 190.852,302.025 193.021,301.438 194.22,298.835 193.5,296.144 192.781,293.452 190.465,291.797 188.237,292.304 186.009,292.811 184.905,295.715 185.647,298.267 Z"
         fill="#ed3024"
         id="path72" />
      <path
         d="M 170.996,343 H 283.296 C 288.696,343 292.996,347.4 292.996,352.7 292.996,358.1 288.596,362.4 283.296,362.4 H 170.996 C 165.596,362.4 161.296,358 161.296,352.7 161.296,347.3 165.596,343 170.996,343 Z"
         fill="#029cde"
         id="path74" />
      <path
         d="M 225.096,349.6 C 224.496,349.1 223.796,348.8 222.996,348.9 H 220.196 C 219.996,348.9 219.796,349 219.796,349.2 L 218.596,356.5 C 218.596,356.6 218.696,356.8 218.796,356.8 H 220.296 C 220.396,356.8 220.596,356.7 220.596,356.6 L 220.896,354.5 C 220.896,354.3 221.096,354.2 221.296,354.2 H 222.196 C 223.796,354.4 225.196,353.2 225.396,351.6 V 351.5 C 225.596,350.8 225.496,350.1 225.096,349.6 Z M 223.396,351.5 C 223.196,352.5 222.496,352.5 221.696,352.5 H 221.196 L 221.496,350.6 C 221.496,350.5 221.596,350.4 221.696,350.4 H 221.896 C 222.396,350.4 222.896,350.4 223.096,350.7 223.396,350.9 223.396,351.2 223.396,351.5 Z M 204.796,349.6 C 204.196,349.1 203.496,348.8 202.696,348.9 H 199.896 C 199.696,348.9 199.496,349 199.496,349.2 L 198.296,356.5 C 198.296,356.6 198.396,356.8 198.496,356.8 H 199.896 C 200.096,356.8 200.296,356.7 200.296,356.5 L 200.596,354.5 C 200.596,354.3 200.796,354.2 200.996,354.2 H 201.896 C 203.496,354.4 204.896,353.2 205.096,351.6 V 351.5 C 205.296,350.8 205.196,350.1 204.796,349.6 Z M 203.096,351.5 C 202.896,352.5 202.196,352.5 201.396,352.5 H 200.996 L 201.296,350.6 C 201.296,350.5 201.396,350.4 201.496,350.4 H 201.696 C 202.196,350.4 202.696,350.4 202.896,350.7 203.096,350.9 203.196,351.2 203.096,351.5 Z M 211.196,351.5 H 209.796 C 209.696,351.5 209.596,351.6 209.596,351.7 L 209.496,352.1 209.396,352 C 208.996,351.6 208.396,351.4 207.796,351.4 206.196,351.4 204.996,352.6 204.796,354.1 204.696,354.8 204.796,355.6 205.296,356.2 205.696,356.7 206.396,356.9 206.996,356.9 207.696,356.9 208.396,356.6 208.896,356.1 L 208.796,356.5 C 208.796,356.6 208.896,356.8 208.996,356.8 H 210.196 C 210.396,356.8 210.596,356.7 210.596,356.5 L 211.296,351.8 C 211.496,351.6 211.396,351.5 211.196,351.5 211.296,351.5 211.296,351.5 211.196,351.5 Z M 209.296,354.1 C 209.196,354.9 208.496,355.4 207.796,355.4 207.196,355.5 206.696,355 206.596,354.5 206.596,354.4 206.596,354.2 206.596,354.1 206.696,353.3 207.396,352.8 208.096,352.8 208.396,352.8 208.796,352.9 208.996,353.2 209.296,353.4 209.396,353.8 209.296,354.1 Z M 231.496,351.5 H 230.196 C 230.096,351.5 229.996,351.6 229.996,351.7 L 229.896,352.1 229.796,352 C 229.396,351.6 228.796,351.4 228.196,351.4 226.596,351.4 225.396,352.6 225.196,354.1 225.096,354.8 225.196,355.6 225.696,356.2 226.096,356.7 226.796,356.9 227.396,356.9 228.096,356.9 228.796,356.6 229.296,356.1 L 229.196,356.5 C 229.196,356.6 229.296,356.7 229.396,356.8 H 230.596 C 230.796,356.8 230.996,356.7 230.996,356.5 L 231.696,351.8 C 231.796,351.6 231.696,351.5 231.496,351.5 231.496,351.5 231.596,351.5 231.496,351.5 Z M 229.596,354.1 C 229.496,354.9 228.796,355.4 228.096,355.4 227.496,355.5 226.996,355 226.896,354.5 226.896,354.4 226.896,354.2 226.896,354.1 226.996,353.3 227.696,352.8 228.396,352.8 228.696,352.8 229.096,352.9 229.296,353.2 229.596,353.4 229.696,353.8 229.596,354.1 Z M 218.496,351.5 H 217.096 C 216.996,351.5 216.796,351.6 216.796,351.7 L 214.896,354.5 214.096,351.8 C 213.996,351.6 213.896,351.5 213.696,351.5 H 212.396 C 212.296,351.5 212.196,351.6 212.196,351.7 V 351.8 L 213.696,356.2 212.296,358.2 C 212.196,358.3 212.196,358.5 212.396,358.5 H 212.496 213.896 C 213.996,358.5 214.196,358.4 214.196,358.3 L 218.796,351.7 C 218.896,351.6 218.796,351.4 218.696,351.4 218.596,351.5 218.496,351.5 218.496,351.5 Z M 234.696,348.8 H 233.396 C 233.296,348.8 233.196,348.9 233.196,349 L 231.996,356.4 C 231.996,356.5 232.096,356.7 232.196,356.7 H 233.396 C 233.596,356.7 233.796,356.6 233.796,356.4 L 234.996,349.1 C 234.896,349 234.796,348.9 234.696,348.8 Z M 187.196,349.2 C 187.196,349 187.296,348.9 187.496,348.8 187.596,348.8 187.596,348.8 187.696,348.8 H 190.796 C 191.096,348.8 191.496,348.8 191.796,348.9 191.896,348.9 191.996,348.9 192.096,348.9 192.196,348.9 192.296,348.9 192.296,349 H 192.396 C 192.496,349 192.696,349.1 192.796,349.2 192.996,348.4 192.796,347.6 192.296,347 191.496,346.3 190.396,345.9 189.296,346.1 H 185.396 C 185.096,346.1 184.896,346.3 184.796,346.6 L 183.196,356.9 C 183.196,357.1 183.296,357.3 183.496,357.3 183.496,357.3 183.496,357.3 183.596,357.3 H 185.996 L 186.596,353.5 Z"
         fill="#ffffff"
         id="path76" />
      <path
         d="M 192.796,349.2 C 192.796,349.3 192.796,349.3 192.796,349.4 192.796,349.5 192.796,349.6 192.696,349.6 192.596,350 192.496,350.3 192.296,350.7 192.196,350.9 192.096,351.2 191.896,351.4 191.796,351.6 191.696,351.7 191.496,351.8 190.596,352.6 189.396,353 188.196,352.9 H 187.096 C 186.796,352.9 186.596,353.1 186.596,353.4 L 185.996,357.1 185.796,358.2 C 185.796,358.4 185.896,358.5 185.996,358.5 H 187.996 C 188.196,358.5 188.396,358.3 188.496,358.1 V 358 L 188.896,355.6 V 355.5 C 188.896,355.3 189.096,355.1 189.396,355.1 H 189.696 C 191.696,355.1 193.196,354.3 193.696,352 193.896,351.2 193.796,350.3 193.296,349.7 193.196,349.5 192.996,349.3 192.796,349.2 Z"
         fill="#b3e1f5"
         id="path78" />
      <path
         d="M 192.196,349 C 192.096,349 191.996,349 191.996,348.9 191.996,348.8 191.796,348.9 191.696,348.9 191.396,348.8 190.996,348.8 190.696,348.8 H 187.596 C 187.496,348.8 187.496,348.8 187.396,348.8 187.296,348.9 187.196,349 187.096,349.2 L 186.496,353.3 V 353.4 C 186.496,353.1 186.796,352.9 186.996,352.9 H 188.096 C 189.296,353 190.496,352.6 191.396,351.8 191.496,351.7 191.696,351.5 191.796,351.4 191.996,351.2 192.096,351 192.196,350.7 192.396,350.4 192.496,350 192.596,349.6 192.596,349.5 192.596,349.4 192.696,349.4 192.796,349.4 192.696,349.2 192.696,349.2 192.596,349.1 192.396,349.1 192.296,349 192.296,349 192.296,349 192.196,349 Z"
         fill="#e8f6fc"
         id="path80" />
      <path
         d="M 241.396,349.1 C 242.696,349.1 243.496,349.9 243.496,351 243.496,351.7 243.096,352.3 242.496,352.5 243.196,352.7 243.696,353.3 243.696,354.1 243.696,355.2 242.896,356 241.596,356 H 238.896 V 349.1 Z M 241.196,351.9 C 241.796,351.9 242.196,351.6 242.196,351 242.196,350.5 241.896,350.1 241.196,350.1 H 240.196 V 351.8 H 241.196 Z M 241.296,354.9 C 241.996,354.9 242.296,354.6 242.296,354 242.296,353.5 241.896,353.1 241.296,353.1 H 240.196 V 354.9 Z M 248.096,355.5 C 247.796,355.9 247.296,356.1 246.796,356.1 245.596,356.1 244.996,355.3 244.996,354.2 V 351.2 H 246.296 V 354 C 246.296,354.5 246.596,355 247.196,355 247.796,355 248.096,354.6 248.096,354.1 V 351.3 H 249.396 V 355.2 C 249.396,355.6 249.396,355.9 249.396,356.1 H 248.196 C 248.196,355.9 248.096,355.7 248.096,355.5 Z M 251.396,357.9 252.496,355.4 250.496,351.2 H 251.896 L 253.196,354 254.396,351.2 H 255.796 L 252.796,357.9 Z M 264.296,356 261.196,351.1 V 356 H 259.896 V 349.1 H 261.596 L 264.496,353.7 V 349.1 H 265.796 V 356 Z M 272.196,353.6 C 272.196,355.1 271.096,356.1 269.696,356.1 268.296,356.1 267.196,355 267.196,353.6 267.196,352.1 268.296,351.1 269.696,351.1 271.096,351.1 272.196,352.1 272.196,353.6 Z M 270.896,353.6 C 270.896,352.7 270.296,352.2 269.696,352.2 269.096,352.2 268.496,352.7 268.496,353.6 268.496,354.5 269.096,355 269.696,355 270.296,355 270.896,354.5 270.896,353.6 Z M 277.596,351.2 278.596,354.3 279.496,351.2 H 280.796 L 279.296,356 H 277.996 L 276.896,352.7 275.796,356 H 274.496 L 272.996,351.2 H 274.396 L 275.296,354.3 276.296,351.2 Z"
         fill="#ffffff"
         id="path82" />
      <path
         opacity="0.31"
         d="M 292.996,160.4 H 160.796 V 166.5 H 292.996 Z M 194.096,173.1 H 160.796 V 179.2 H 194.096 Z"
         fill="#393762"
         id="path84" />
      <path
         d="M 277.579,272.967 H 249.679 V 311.267 H 277.579 Z"
         fill="#7aaf03"
         id="path86" />
      <path
         d="M 277.579,276.267 H 249.679 V 308.767 H 277.579 Z"
         fill="#9cce2c"
         id="path88" />
      <path
         d="M 251.579,272.967 H 249.679 V 311.267 H 251.579 Z"
         fill="#e4ede9"
         id="path90" />
      <path
         d="M 277.579,279.667 H 249.679 V 280.467 H 277.579 Z M 277.579,305.067 H 249.679 V 305.867 H 277.579 Z M 270.779,291.267 C 270.779,295.167 267.579,298.267 263.779,298.267 259.879,298.267 256.779,295.067 256.779,291.267 256.779,287.367 259.979,284.267 263.779,284.267 267.579,284.267 270.779,287.367 270.779,291.267 Z M 268.679,299.767 H 258.879 V 301.367 H 268.679 Z"
         fill="#e4ede9"
         id="path92" />
      <g
         id="order"
         transform="translate(-188.80423,69.074714)">
        <path
           d="M 496.496,8.2002 H 430.996 C 427.396,8.2002 424.496,11.1 424.496,14.8 V 54.2002 C 424.496,57.8002 427.396,60.7002 430.996,60.7002 H 496.496 C 500.096,60.7002 502.996,57.8002 502.996,54.2002 V 14.8 C 502.996,11.2 500.096,8.3002 496.496,8.2002 Z"
           fill="#ffffff"
           id="path96" />
        <path
           opacity="0.5"
           d="M 496.596,8.2002 H 431.096 C 427.496,8.2002 424.596,11.1 424.596,14.8 V 54.2002 C 424.596,57.8002 427.496,60.7002 431.096,60.7002 H 496.596 C 500.196,60.7002 503.096,57.8002 503.096,54.2002 V 14.8 C 503.196,11.2 500.296,8.3002 496.596,8.2002 496.696,8.2002 496.696,8.2002 496.596,8.2002 Z M 494.896,12.6001 463.896,38.8 432.896,12.6001 Z M 428.896,53.6001 V 15 L 451.896,34.4001 Z M 432.496,56.3 455.296,37.3 462.396,43.3 C 463.196,44 464.396,44 465.196,43.3 L 472.296,37.3 495.196,56.3 Z M 498.796,53.6001 475.796,34.4001 498.796,14.9001 Z"
           fill="#1CB5B5"
           id="path98"
           style="fill:#ff0000;fill-opacity:1" />
      </g>
      <path
         d="M 565.196,223.8 H 675.396 C 679.296,223.8 682.496,227 682.496,230.9 V 434.8 C 682.496,438.7 679.296,441.9 675.396,441.9 H 565.196 C 561.296,441.9 558.096,438.7 558.096,434.8 V 230.9 C 558.196,226.9 561.296,223.8 565.196,223.8 Z"
         fill="#ffffff"
         stroke="#08B5B5"
         stroke-width="4.359"
         id="path106"
         style="stroke:#ff0000;stroke-opacity:1" />
      <path
         d="M 620.296,429.1 C 624.272,429.1 627.496,425.877 627.496,421.9 627.496,417.924 624.272,414.7 620.296,414.7 616.32,414.7 613.096,417.924 613.096,421.9 613.096,425.877 616.32,429.1 620.296,429.1 Z"
         fill="#c9c6ff"
         id="path108" />
      <path
         opacity="0.31"
         d="M 583.596,279.8 C 589.892,279.8 594.996,274.696 594.996,268.4 594.996,262.104 589.892,257 583.596,257 577.3,257 572.196,262.104 572.196,268.4 572.196,274.696 577.3,279.8 583.596,279.8 Z"
         fill="#393762"
         id="path110" />
      <path
         d="M 583.596,270.2 C 585.695,270.2 587.396,268.499 587.396,266.4 587.396,264.301 585.695,262.6 583.596,262.6 581.497,262.6 579.796,264.301 579.796,266.4 579.796,268.499 581.497,270.2 583.596,270.2 Z M 591.096,273.8 C 586.396,271.2 580.796,271.2 576.096,273.8 579.096,277.9 584.796,278.9 588.896,275.9 589.696,275.3 590.496,274.6 591.096,273.8 Z"
         fill="#ffffff"
         id="path112" />
      <path
         opacity="0.31"
         d="M 660.096,259.6 H 604.796 V 264.3 H 660.096 Z M 666.396,295.1 H 572.096 V 299.8 H 666.396 Z M 666.396,304.3 H 572.096 V 309 H 666.396 Z M 630.796,269.5 H 604.796 V 274.2 H 630.796 Z"
         fill="#393762"
         id="path114" />
      <path
         d="M 565.896,225.5 H 674.096 C 677.196,225.5 679.696,228 679.696,231.1 V 247.1 H 560.296 V 231.1 C 560.296,228 562.796,225.5 565.896,225.5 Z"
         fill="#2ED9D9"
         id="path116"
         style="fill:#ff0000" />
      <path
         d="M 679.099,247.153 C 690.642,247.153 699.999,237.796 699.999,226.253 699.999,214.711 690.642,205.353 679.099,205.353 667.556,205.353 658.199,214.711 658.199,226.253 658.199,237.796 667.556,247.153 679.099,247.153 Z"
         fill="#ffffff"
         id="path118" />
      <path
         d="M 679.099,241.803 C 687.715,241.803 694.699,234.819 694.699,226.203 694.699,217.587 687.715,210.603 679.099,210.603 670.483,210.603 663.499,217.587 663.499,226.203 663.499,234.819 670.483,241.803 679.099,241.803 Z"
         fill="#ff0000"
         id="path120" />
      <path
         d="M 678.199,232.803 V 223.703 H 674.899 V 221.703 C 676.899,221.703 678.299,220.603 678.599,219.103 H 681.099 V 232.703 H 678.199 Z"
         fill="#ffffff"
         id="path122" />
      <path
         d="M 617.272,334.435 C 615.072,332.635 609.872,341.535 602.372,342.635 594.872,343.735 587.472,340.235 585.872,337.735 584.272,335.235 581.172,329.535 581.172,329.535 L 577.872,331.335 582.172,335.935 C 582.172,335.935 580.772,336.635 581.572,340.135 582.372,343.635 587.372,352.835 601.672,352.035 615.972,351.235 619.872,336.635 617.272,334.435 Z"
         fill="#e4a824"
         id="path124" />
      <path
         d="M 581.172,329.535 584.372,335.335 579.772,330.335 Z M 617.272,334.435 C 617.272,334.435 615.672,344.435 602.272,347.635 594.072,349.635 586.772,344.335 584.872,342.035 581.872,338.135 582.172,335.935 582.172,335.935 582.172,335.935 580.772,336.535 581.572,340.035 582.372,343.535 587.372,352.735 601.672,351.935 615.972,351.135 619.872,336.635 617.272,334.435 Z"
         fill="#d08e29"
         id="path126" />
      <path
         d="M 614.888,343.356 C 613.188,341.156 605.988,348.356 598.288,347.656 590.588,346.956 584.288,341.856 583.188,339.156 582.088,336.456 580.488,330.156 580.488,330.156 L 576.788,331.156 579.988,336.556 C 579.988,336.556 578.488,336.856 578.488,340.456 578.488,344.056 581.288,354.056 595.688,356.556 610.088,359.056 616.988,346.056 614.888,343.356 Z"
         fill="#fbcd09"
         id="path128" />
      <path
         d="M 580.488,330.156 582.288,336.456 578.788,330.556 Z"
         fill="#d08e29"
         id="path130" />
      <path
         d="M 614.888,343.356 C 614.888,343.356 611.088,352.556 597.088,352.556 588.688,352.556 582.588,345.756 581.288,343.056 579.188,338.556 579.988,336.456 579.988,336.456 579.988,336.456 578.488,336.756 578.488,340.356 578.488,343.956 581.288,353.956 595.688,356.456 610.088,358.956 616.988,346.056 614.888,343.356 Z"
         fill="#e4a824"
         id="path132" />
      <path
         d="M 579.398,378.544 V 383.544 H 578.198 V 378.544 H 576.298 V 377.444 H 581.398 V 378.544 Z M 583.598,383.644 H 582.398 V 377.344 H 583.598 V 379.744 C 583.898,379.444 584.298,379.244 584.798,379.244 585.898,379.244 586.398,380.044 586.398,380.944 V 383.644 H 585.198 V 381.144 C 585.198,380.644 584.998,380.244 584.398,380.244 583.898,380.244 583.598,380.644 583.598,381.044 Z M 588.898,381.144 589.998,380.944 C 590.198,380.944 590.298,380.744 590.298,380.644 590.298,380.344 590.098,380.044 589.598,380.044 589.098,380.044 588.798,380.344 588.798,380.744 L 587.798,380.544 C 587.898,379.844 588.498,379.144 589.598,379.144 590.998,379.144 591.498,379.944 591.498,380.744 V 382.844 C 591.498,383.044 591.498,383.344 591.598,383.544 H 590.498 C 590.498,383.444 590.498,383.244 590.498,383.044 590.298,383.344 589.898,383.644 589.198,383.644 588.298,383.644 587.698,383.044 587.698,382.344 587.598,381.644 588.198,381.244 588.898,381.144 Z M 590.298,381.844 V 381.644 L 589.298,381.744 C 588.998,381.744 588.798,381.944 588.798,382.244 588.798,382.544 588.998,382.744 589.398,382.744 589.798,382.844 590.298,382.644 590.298,381.844 Z M 593.998,383.644 H 592.798 V 379.344 H 593.898 V 379.844 C 594.198,379.444 594.698,379.244 595.098,379.244 596.198,379.244 596.598,380.044 596.598,380.944 V 383.644 H 595.398 V 381.144 C 595.398,380.644 595.198,380.244 594.598,380.244 594.098,380.244 593.798,380.644 593.798,381.144 V 383.644 Z M 600.698,381.144 602.398,383.644 H 600.998 L 599.898,382.044 599.398,382.544 V 383.644 H 598.198 V 377.344 H 599.398 V 380.944 L 600.898,379.344 H 602.398 Z M 606.298,385.344 607.298,383.144 605.498,379.444 H 606.798 L 607.898,381.944 608.998,379.444 H 610.198 L 607.498,385.444 H 606.298 Z M 615.198,381.444 C 615.198,382.744 614.198,383.744 612.998,383.744 611.698,383.744 610.798,382.744 610.798,381.444 610.798,380.144 611.798,379.144 612.998,379.144 614.198,379.244 615.198,380.144 615.198,381.444 Z M 613.998,381.444 C 613.998,380.644 613.498,380.244 612.898,380.244 612.298,380.244 611.798,380.644 611.798,381.444 611.798,382.244 612.298,382.644 612.898,382.644 613.498,382.644 613.998,382.244 613.998,381.444 Z M 619.198,383.144 C 618.998,383.544 618.498,383.744 617.998,383.744 616.998,383.744 616.398,382.944 616.398,382.044 V 379.344 H 617.598 V 381.844 C 617.598,382.344 617.798,382.744 618.398,382.744 618.898,382.744 619.198,382.444 619.198,381.944 V 379.444 H 620.398 V 382.944 C 620.398,383.244 620.398,383.544 620.398,383.744 H 619.298 C 619.198,383.544 619.198,383.344 619.198,383.144 Z"
         fill="#393762"
         id="path134" />
      <path
         d="M 572.798,239.544 V 233.344 H 573.998 V 239.544 Z M 579.798,239.544 576.998,235.144 V 239.544 H 575.798 V 233.344 H 577.298 L 579.898,237.444 V 233.344 H 581.098 V 239.544 Z M 584.998,233.444 C 586.198,233.444 586.898,234.144 586.898,235.144 586.898,235.744 586.498,236.244 585.998,236.444 586.598,236.544 587.098,237.144 587.098,237.944 587.098,238.944 586.398,239.644 585.198,239.644 H 582.798 V 233.444 Z M 584.898,235.944 C 585.398,235.944 585.798,235.644 585.798,235.144 585.798,234.644 585.498,234.344 584.898,234.344 H 584.098 V 235.844 H 584.898 Z M 584.998,238.544 C 585.598,238.544 585.898,238.244 585.898,237.744 585.898,237.244 585.598,236.944 584.998,236.944 H 583.998 V 238.544 Z M 591.298,233.244 C 592.998,233.244 594.498,234.444 594.498,236.444 594.498,238.444 592.998,239.644 591.298,239.644 589.598,239.644 588.098,238.444 588.098,236.444 588.098,234.544 589.598,233.244 591.298,233.244 Z M 591.298,238.544 C 592.298,238.544 593.198,237.844 593.198,236.444 593.198,235.044 592.198,234.344 591.298,234.344 590.398,234.344 589.398,235.044 589.398,236.444 589.398,237.844 590.298,238.544 591.298,238.544 Z M 598.398,236.544 600.398,239.644 H 598.898 L 597.598,237.544 596.298,239.644 H 594.898 L 596.898,236.544 594.898,233.444 H 596.298 L 597.598,235.544 598.898,233.444 H 600.298 Z"
         fill="#ffffff"
         id="path136" />
      <path
         d="M 469.87,284.96 C 469.87,284.96 470.27,227.56 498.67,237.06 527.07,246.56 549.87,324.46 512.67,334.96 475.47,345.46 469.87,284.96 469.87,284.96 Z"
         fill="#641c06"
         id="path138" />
      <path
         d="M 481.47,245.96 C 481.47,245.96 486.87,241.26 491.97,243.66 497.07,246.06 499.67,250.16 497.87,259.76 Z"
         fill="#68b399"
         id="path140" />
      <path
         d="M 502.37,407.56 C 519.47,453.96 513.27,451.86 513.27,451.86 486.87,463.66 453.87,460.66 453.87,460.66 449.47,474.76 452.67,478.46 452.67,478.46 484.17,486.56 520.77,474.06 529.87,469.36 538.97,464.66 538.97,453.56 538.97,453.56 538.97,402.76 525.87,378.56 525.87,378.56 519.77,367.76 518.17,365.16 500.57,360.06 489.37,356.66 478.77,351.76 468.87,345.56 L 453.17,349.16 C 453.17,349.16 418.67,362.86 412.17,367.66 405.67,372.46 366.67,423.56 363.77,424.96 360.87,426.36 336.37,412.86 311.07,391.46 L 296.97,407.36 C 296.97,407.36 332.27,436.36 352.57,448.86 352.57,448.86 358.67,455.36 374.27,447.66 389.87,439.96 408.87,415.96 412.97,407.26 412.97,407.26 415.07,429.46 422.97,445.26 430.87,461.06 416.07,495.06 416.07,495.06 416.07,495.06 409.57,507.76 414.47,511.96 419.17,515.96 455.27,528.56 496.37,514.86 500.37,513.56 503.27,509.86 503.47,505.66 503.77,500.06 502.67,494.46 500.47,489.26 500.47,489.26 483.17,459.86 504.77,410.46"
         fill="#008BED"
         id="path142"
         style="fill:#ff0000" />
      <path
         d="M 306.297,401.378 C 310.165,396.91 312.285,392.409 311.032,391.324 309.779,390.24 305.628,392.983 301.761,397.451 297.893,401.919 295.773,406.421 297.026,407.505 298.278,408.589 302.429,405.846 306.297,401.378 Z"
         fill="#0061a6"
         id="path144" />
      <path
         d="M 448.17,331.46 C 448.17,331.46 453.97,340.46 448.87,348.36 443.77,356.26 428.37,371.86 439.47,381.56 449.97,390.86 468.37,384.36 478.27,357.96 478.87,356.16 478.57,354.16 477.47,352.56 475.67,350.06 473.67,342.96 475.37,322.96 Z"
         fill="#ff9682"
         id="path146" />
      <path
         d="M 425.27,306.56 C 425.27,306.56 420.37,284.76 419.87,275.36 419.37,265.76 420.87,257.76 428.97,251.06 434.27,246.66 474.27,215.86 500.87,261.26 500.87,261.26 525.47,285.66 484.97,322.66 Z"
         fill="#742811"
         id="path148" />
      <path
         d="M 488.07,315.06 C 472.27,353.26 446.97,340.76 446.97,340.76 415.67,323.86 425.47,274.26 425.47,274.26 L 438.57,259.66 490.77,266.76 499.07,276.36 494.27,291.86 494.77,301.26 489.97,309.56 Z"
         fill="#ff9682"
         id="path150" />
      <path
         d="M 487.37,297.16 C 479.17,314.46 475.47,310.76 475.47,310.76 475.47,310.76 479.07,306.46 471.47,295.56 463.87,284.66 473.97,274.16 473.97,274.16 447.47,298.96 419.57,270.86 419.57,270.86 L 431.27,253.06 478.67,255.76 C 478.67,255.76 499.27,268.16 499.87,268.76 500.47,269.36 506.07,284.46 506.07,284.46 L 500.67,298.46 488.47,299.56 Z"
         fill="#742811"
         id="path152" />
      <path
         d="M 482.37,311.56 C 482.37,311.56 483.57,316.76 488.07,315.06 488.07,315.06 495.17,310.96 495.67,303.26 496.17,295.56 487.77,288.16 482.67,305.36 M 283.27,381.46 C 281.97,377.96 279.37,375.06 276.07,373.26 270.37,370.06 260.07,362.16 261.07,358.26 261.07,358.26 261.27,356.66 265.57,359.26 269.87,361.86 279.57,368.96 285.77,370.96 291.97,372.96 296.87,380.06 297.77,381.46 301.17,386.76 305.57,391.36 310.67,395.06 L 309.77,396.96 C 307.77,399.86 305.47,402.56 302.87,404.96 L 301.17,406.26 C 301.17,406.26 297.27,401.86 294.57,401.46 291.87,401.06 285.57,401.16 281.27,397.66 276.97,394.16 273.87,392.66 272.27,392.06 270.67,391.46 263.87,386.56 264.87,382.76 264.87,382.76 265.07,381.46 268.97,383.46 272.87,385.46 279.27,389.26 284.17,388.86"
         fill="#ff8f7a"
         id="path154" />
      <path
         d="M 431.37,479.96 412.67,442.66 C 412.27,441.96 411.57,441.46 410.77,441.46 H 388.57 C 387.97,441.46 387.37,441.76 386.97,442.16 386.87,442.26 386.77,442.36 386.77,442.46 386.77,442.46 386.77,442.46 386.77,442.56 386.37,443.26 386.07,444.06 385.77,444.76 L 386.97,445.86 388.57,444.06 C 388.57,444.06 388.47,443.76 388.27,443.36 H 409.87 C 410.67,443.36 411.37,443.86 411.77,444.56 L 430.47,481.86 C 430.57,482.06 430.67,482.26 430.67,482.56 431.57,482.06 431.87,480.86 431.37,479.96 Z"
         fill="#8355b5"
         id="path156" />
      <path
         d="M 430.67,482.66 C 430.67,482.46 430.57,482.16 430.47,481.96 L 411.77,444.66 C 411.37,443.96 410.67,443.46 409.87,443.46 H 387.67 C 387.27,443.46 386.77,443.56 386.47,443.86 385.57,444.46 385.37,445.56 385.77,446.56 L 404.47,483.86 C 404.87,484.56 405.57,485.06 406.37,485.06 H 428.57 C 429.77,485.06 430.67,484.16 430.67,482.96 430.67,482.86 430.67,482.76 430.67,482.66 Z"
         fill="#b878ff"
         id="path158" />
      <path
         d="M 423.97,465.36 C 427.47,465.66 422.07,467.46 422.07,467.46 422.07,467.46 418.97,468.76 418.17,469.26 417.37,469.76 413.97,469.86 411.67,470.76 409.37,471.66 399.87,472.76 397.77,475.96 397.77,475.96 395.37,478.36 398.67,478.36 401.97,478.36 405.17,477.36 407.07,477.26 407.07,477.26 410.57,480.06 412.97,480.66 415.37,481.26 420.47,480.66 420.47,480.66 420.47,480.66 412.27,487.36 411.57,490.06 410.87,492.76 412.37,492.06 413.87,491.16 415.37,490.26 425.27,483.66 428.87,483.46 428.87,483.46 439.27,482.56 445.47,478.06 445.47,478.06 448.17,477.16 454.17,477.06 L 456.07,462.76 C 456.07,462.76 450.37,462.96 449.27,462.76 448.17,462.56 440.37,459.96 438.67,459.26 436.97,458.56 428.57,455.46 421.37,459.96"
         fill="#ff8f7a"
         id="path160" />
      <path
         d="M 502.37,407.56 C 519.47,453.96 513.27,451.86 513.27,451.86 486.87,463.66 453.87,460.66 453.87,460.66 449.47,474.76 452.67,478.46 452.67,478.46 484.17,486.56 520.77,474.06 529.87,469.36 538.97,464.66 538.97,453.56 538.97,453.56"
         fill="#008bed"
         id="path162" />
      <path
         d="M 446.47,293.06 C 446.47,293.06 448.07,300.56 441.37,304.76 439.07,306.16 438.57,308.96 440.97,309.96 443.47,311.06 446.37,310.96 448.77,309.76"
         stroke="#f05127"
         stroke-width="1.298"
         stroke-linecap="round"
         stroke-linejoin="round"
         id="path164" />
      <path
         d="M 460.361,302.949 C 461.463,302.874 462.271,301.562 462.166,300.019 462.061,298.477 461.082,297.287 459.98,297.362 458.878,297.437 458.07,298.749 458.175,300.291 458.28,301.834 459.259,303.024 460.361,302.949 Z M 435.659,296.844 C 436.762,296.769 437.57,295.457 437.465,293.914 437.359,292.371 436.381,291.182 435.279,291.257 434.177,291.332 433.369,292.643 433.474,294.186 433.579,295.729 434.557,296.919 435.659,296.844 Z"
         fill="#3e1d42"
         id="path166" />
      <path
         d="M 436.47,321.26 C 443.37,340.56 456.07,325.46 456.07,325.46 Z"
         fill="#ffffff"
         id="path168" />
      <path
         d="M 458.07,289.66 C 461.37,289.76 464.47,290.66 467.37,292.06 M 432.17,285.76 C 435.37,285.16 438.67,285.26 441.77,286.06"
         stroke="#f05127"
         stroke-width="1.298"
         stroke-linecap="round"
         stroke-linejoin="round"
         id="path170" />
      <path
         d="M 72.901,490.652 H 195.201 C 198.301,490.652 200.801,493.152 200.801,496.252 V 530.152 C 200.801,533.252 198.301,535.752 195.201,535.752 H 72.901 C 69.801,535.752 67.301,533.252 67.301,530.152 V 496.252 C 67.201,493.252 69.701,490.652 72.901,490.652 Z"
         fill="#ffffff"
         id="path180" />
      <path
         d="M 210.298,544.649 H 332.598 C 335.698,544.649 338.198,547.149 338.198,550.249 V 584.149 C 338.198,587.249 335.698,589.749 332.598,589.749 H 210.298 C 207.198,589.749 204.698,587.249 204.698,584.149 V 550.249 C 204.698,547.149 207.198,544.649 210.298,544.649 Z"
         fill="#ffffff"
         id="path196" />
    </g>
  </g>
</svg>
