<svg id="Layer_1" data-name="Layer 1" xmlns="http://www.w3.org/2000/svg" viewBox="0 0 283.46 283.46"><defs><style>.cls-1{fill:#432918;}.cls-2{fill:#683c11;}.cls-3{fill:#7d4e24;}.cls-4{fill:#936037;}.cls-5{fill:#b17f4a;}</style></defs><title>Nuts Icon Amended</title><path class="cls-1" d="M174.16,75.25c-.23,1.07-.51,2.17-.8,3.27a33.94,33.94,0,0,0-11.08-4.28,34.35,34.35,0,0,0-18.17,2c-8.26-9.09-16.33-15.54-23.18-21A217.07,217.07,0,0,0,99.5,40.14c2-.17,4.11-.26,6.26-.29,15.72-.1,27,3.95,38.93,8.25a96.35,96.35,0,0,1,26.4,16.38,10,10,0,0,1,3.13,4.38C175,71.05,174.66,73.05,174.16,75.25Z"/><path class="cls-1" d="M66.05,44.29l-4.23,2c-.21.12-.41.21-.6.3a108.77,108.77,0,0,0-12.78,7.34l-3.81,2.61a64.41,64.41,0,0,1-5.31-7,68.25,68.25,0,0,1-9.09-20.88C27.52,19,28.13,14.83,29.13,12a17.2,17.2,0,0,1,5.28-7.89C38.51.72,42.91.43,47.57.16c6.78-.44,13.94-.25,15.65,4.12.8,2.07-.17,3.69-1.08,5.3a24.76,24.76,0,0,0-2,4,27.16,27.16,0,0,0-1.76,10.59A30.3,30.3,0,0,0,62,37.7,37.36,37.36,0,0,0,66.05,44.29Z"/><path class="cls-2" d="M178.64,76.24c-.39,1.69-.79,3.4-1.3,5.13l-4-2.85c.29-1.1.57-2.2.8-3.27.5-2.2.84-4.2.06-6.39a10,10,0,0,0-3.13-4.38,96.35,96.35,0,0,0-26.4-16.38c-11.94-4.3-23.21-8.35-38.93-8.25-2.15,0-4.23.12-6.26.29a217.07,217.07,0,0,1,21.43,15.11c6.85,5.47,14.92,11.92,23.18,21-1.17.43-2.15.84-3,1.19-.52.23-1.06.43-1.56.65C114.33,88.67,101.53,94,94.72,97.8c-3.23,1.78-3.83,2.15-7.65,4.55-4.2,2.63-12,7.51-31,19.15l-.2.13c-12.23,7.49-26.1,16-33.45,29.37a30.62,30.62,0,0,0-4.1,14,29.11,29.11,0,0,0,.27,4.86L20,175.24a33.41,33.41,0,0,1-4.17-1.59,31.76,31.76,0,0,1-8.68-5.81C1.24,162-.94,152.31.37,137.4c1-11.36,2.81-32.51,18.35-54.95A110.33,110.33,0,0,1,44.63,56.52l3.81-2.61a108.77,108.77,0,0,1,12.78-7.34c.19-.09.39-.18.6-.3l4.23-2A100.28,100.28,0,0,1,86,37.6c2.24-.53,4.57-1,7-1.34h0a93.59,93.59,0,0,1,12.72-1c16.58-.12,28.18,4.08,40.5,8.52.55.2,13.63,5,27.84,17.22a14.83,14.83,0,0,1,4.49,6.32A15.75,15.75,0,0,1,178.64,76.24Z"/><path class="cls-3" d="M189.07,190.13a122.43,122.43,0,0,1-10.85,29.23,49.37,49.37,0,0,1-9.5,12.78,38.46,38.46,0,0,1-4.62,3.9c9.23-15.13,11.46-29.1,13.78-43.87,1.78-11.08,4.73-29.67-.37-53.17a128.56,128.56,0,0,0-20.06-45.77c-1-1.41-1.87-2.67-2.66-3.75-.34-.49-.68-.94-1-1.35-2.13-2.94-4.28-5.64-6.43-8.15a28.61,28.61,0,0,1,14.11-1.22,27.75,27.75,0,0,1,7.26,2.48,31.88,31.88,0,0,1,3.3,1.89l1.08.75q.38.25.72.54c.71.54,1.41,1.12,2.05,1.71,4.47,4.15,7.06,9.16,9.43,15.26A126.72,126.72,0,0,1,193.58,140,180.35,180.35,0,0,1,189.07,190.13Z"/><path class="cls-4" d="M198.17,139.74a131.52,131.52,0,0,0-8.57-40c-2.52-6.4-5.76-13.07-12.26-18.34l-4-2.85a33.94,33.94,0,0,0-11.08-4.28,34.35,34.35,0,0,0-18.17,2c-1.17.43-2.15.84-3,1.19-.52.23-1.06.43-1.56.65C114.33,88.67,101.53,94,94.72,97.8c-3.23,1.78-3.83,2.15-7.65,4.55-4.2,2.63-12,7.51-31,19.15l-.2.13c-12.23,7.49-26.1,16-33.45,29.37a30.62,30.62,0,0,0-4.1,14,29.11,29.11,0,0,0,.27,4.86L20,175.24a50.62,50.62,0,0,0,3.17,7,95.7,95.7,0,0,0,23.46,28.16c9.14,7.53,16.59,11.47,27.86,17.43l1.1-2-1.07,2c13.51,7.13,23.25,12.3,37.56,15.85a125.94,125.94,0,0,0,27.44,3c2.32,0,4.76-.07,7.23-.22,1.34-.09,2.75-.21,4.24-.41a35.51,35.51,0,0,0,7.52-1.86c.79-.27,1.6-.61,2.42-1a39.13,39.13,0,0,0,10.94-7.68,53.61,53.61,0,0,0,10.38-14,125.53,125.53,0,0,0,11.26-30.33A185.42,185.42,0,0,0,198.17,139.74Zm-9.1,50.39a122.43,122.43,0,0,1-10.85,29.23,49.37,49.37,0,0,1-9.5,12.78,38.46,38.46,0,0,1-4.62,3.9c9.23-15.13,11.46-29.1,13.78-43.87,1.78-11.08,4.73-29.67-.37-53.17a128.56,128.56,0,0,0-20.06-45.77c-1-1.41-1.87-2.67-2.66-3.75-.34-.49-.68-.94-1-1.35-2.13-2.94-4.28-5.64-6.43-8.15a28.61,28.61,0,0,1,14.11-1.22,27.75,27.75,0,0,1,7.26,2.48,31.88,31.88,0,0,1,3.3,1.89l1.08.75q.38.25.72.54c.71.54,1.41,1.12,2.05,1.71,4.47,4.15,7.06,9.16,9.43,15.26A126.72,126.72,0,0,1,193.58,140,180.35,180.35,0,0,1,189.07,190.13Z"/><path class="cls-5" d="M282.9,110.39a51.64,51.64,0,0,0-4.69-15.5c-1.91-3.85-5.06-10.3-12.15-15.14A26.12,26.12,0,0,0,263.21,78l-.12-.06-.64-.34c-1-.51-2-1-3-1.33l-.66-.25-.69-.24A41.22,41.22,0,0,0,249.19,74a51.33,51.33,0,0,0-21.33,2.56c-8.72,2.83-18.29,8.8-27.68,17.27A81.39,81.39,0,0,0,188,107.4c-1.51,2-3.21,4.23-5.45,7-.84,1-1.76,2.13-2.76,3.32-1.73,2-3.75,4.36-6.17,7-6,6.59-11.2,12.28-18.79,18.66a100.09,100.09,0,0,1-9.12,6.94c-1.78,1.22-3.46,2.28-5.17,3.34l-1.27.79c-3,1.87-6.18,3.79-10.26,6.69-13.4,9.44-23.77,16.78-30.45,27.07A40.41,40.41,0,0,0,96.28,192a44,44,0,0,0-2,4.21c-7.72,19.06-1,37.56,1.48,44.54,1.7,4.71,5.65,15.64,14.25,25.3a53.53,53.53,0,0,0,4.19,4.2,50.08,50.08,0,0,0,14.61,9.35,50.89,50.89,0,0,0,19.71,3.88c11.31,0,21.23-3.43,28.16-5.83,24.12-8.33,37.82-25.29,42.33-30.86,5.75-7.12,13.94-19.38,20.3-37.29,1.77-5,2.81-8.87,3.71-12.28,1.55-5.83,2.68-10,6.57-16.07A36.09,36.09,0,0,1,259.08,171a48.41,48.41,0,0,0,10.43-10.57,70.28,70.28,0,0,0,13.79-36.93c0-.62.08-1.23.1-1.86A61.29,61.29,0,0,0,282.9,110.39ZM112.5,228.66h-.18a2,2,0,0,1-1.82-2.14,60.24,60.24,0,0,1,7.23-24.27,51.47,51.47,0,0,1,3.11-5,68.06,68.06,0,0,0-16-4.31c-1.4-.23-2.8-.44-4.19-.57l2.39-3.72c.84.11,1.66.23,2.48.36a71.75,71.75,0,0,1,17.79,4.94,79.37,79.37,0,0,1,12.54-12.1c4.24-3.47,6.62-4.82,13-8.42,3.41-1.95,8.09-4.59,14.9-8.62l4.66-2.75a64.88,64.88,0,0,0-13.55-5.56,74.66,74.66,0,0,0-8.22-2l4.45-3.12c1.68.4,3.34.84,5,1.36a63.25,63.25,0,0,1,16.2,7,139.8,139.8,0,0,0,14.26-9.35c5.41-4.24,12.83-10,19.54-19.74a4,4,0,0,0,.27-.37c-.8-.63-1.61-1.25-2.44-1.85a62.4,62.4,0,0,0-12-6.4c-2.62-1.15-5.3-2.18-8-3.07l2.69-3.28c2.36.81,4.68,1.73,6.95,2.72a65.48,65.48,0,0,1,12.67,6.8c.77.56,1.53,1.11,2.27,1.73a75.6,75.6,0,0,0,7-15,2,2,0,0,1,2.53-1.25,2,2,0,0,1,1.25,2.53,78,78,0,0,1-7.7,16.28,56.11,56.11,0,0,1,8.45,9.74,2,2,0,0,1-.51,2.75,2.13,2.13,0,0,1-1.13.34,2,2,0,0,1-1.66-.87,53.17,53.17,0,0,0-7.34-8.58c-7.07,10.19-14.75,16.19-20.39,20.59a128.86,128.86,0,0,1-13.16,8.73,40.46,40.46,0,0,1,3.31,2.83,48.55,48.55,0,0,1,10.75,14.81,2,2,0,0,1-.94,2.63,2.06,2.06,0,0,1-.86.19,2,2,0,0,1-1.8-1.14,44.49,44.49,0,0,0-14.11-17.12l-6.35,3.78c-6.85,4-11.55,6.7-15,8.65-6.32,3.57-8.45,4.77-12.4,8A79,79,0,0,0,127,195.73a55.17,55.17,0,0,1,5.3,3.19,57.06,57.06,0,0,1,14,13.69c1.36-1.07,2.7-2.09,4-3.06,8.61-6.45,15.82-10,25-14.42,7-3.41,11.09-5,14.37-6.32a68.79,68.79,0,0,0,10.78-5.16,105.42,105.42,0,0,0,20.23-15.57,102.33,102.33,0,0,0,21.23-30.49,2,2,0,0,1,2.66-1,2,2,0,0,1,1,2.62,106.8,106.8,0,0,1-22,31.67,110.35,110.35,0,0,1-21,16.17A70.06,70.06,0,0,1,191,192.47c-3.21,1.29-7.21,2.87-14.1,6.23-8.95,4.36-16,7.8-24.31,14-1.38,1-2.77,2.08-4.17,3.22a60.24,60.24,0,0,1,3.09,5.58,2,2,0,0,1-.91,2.64,1.83,1.83,0,0,1-.88.2,2,2,0,0,1-1.79-1.11c-.7-1.45-1.57-3.06-2.6-4.74a55.16,55.16,0,0,0-8,8.69,59.07,59.07,0,0,0-8.69,17,2,2,0,0,1-1.91,1.37,2,2,0,0,1-1.9-2.6,62.76,62.76,0,0,1,9.28-18.09,60.09,60.09,0,0,1,9-9.68,52.36,52.36,0,0,0-13.16-13,51.45,51.45,0,0,0-5.49-3.27,47.49,47.49,0,0,0-3.28,5.24,56.74,56.74,0,0,0-6.75,22.67A2,2,0,0,1,112.5,228.66ZM204.62,216A93.26,93.26,0,0,1,189,232.19a111.46,111.46,0,0,1-11.22,7.71c-2,1.27-4.34,2.75-7.25,4.63-5.62,3.64-11.2,7.42-16.58,11.2a2,2,0,0,1-1.15.36,2,2,0,0,1-1.15-3.59c5.42-3.81,11-7.61,16.7-11.29,2.92-1.88,5.27-3.39,7.29-4.66a107.72,107.72,0,0,0,10.87-7.45,89,89,0,0,0,15-15.52,2,2,0,0,1,3.19,2.38Zm61.7-57.9a45.81,45.81,0,0,1-9.7,9.8A39,39,0,0,0,246.27,179c-4.23,6.55-5.49,11.25-7.06,17.21-.9,3.33-1.9,7.12-3.62,12-6.17,17.37-14.09,29.24-19.65,36.09-4.34,5.36-17.49,21.66-40.54,29.64-10.19,3.52-27.26,9.4-45,2a44.72,44.72,0,0,1-9.74-5.57c1.07,0,2.13,0,3.19,0a110.47,110.47,0,0,0,38.26-7.08c8.17-3.12,21.82-8.32,33.37-20.67,2-2.16,3.62-3.85,19.29-33.48,1.78-3.38,3.34-6.35,4.72-8.94,8-15.34,9.5-18.1,13.92-22.68a54.23,54.23,0,0,1,8.36-7.08A139.48,139.48,0,0,0,254.62,160,194,194,0,0,0,273.47,141a57.28,57.28,0,0,0,3.72-5.16A68.13,68.13,0,0,1,266.32,158.06Z"/><path class="cls-4" d="M277.19,135.8a68.13,68.13,0,0,1-10.87,22.26,45.81,45.81,0,0,1-9.7,9.8A39,39,0,0,0,246.27,179c-4.23,6.55-5.49,11.25-7.06,17.21-.9,3.33-1.9,7.12-3.62,12-6.17,17.37-14.09,29.24-19.65,36.09-4.34,5.36-17.49,21.66-40.54,29.64-10.19,3.52-27.26,9.4-45,2a44.72,44.72,0,0,1-9.74-5.57c1.07,0,2.13,0,3.19,0a110.47,110.47,0,0,0,38.26-7.08c8.17-3.12,21.82-8.32,33.37-20.67,2-2.16,3.62-3.85,19.29-33.48,1.78-3.38,3.34-6.35,4.72-8.94,8-15.34,9.5-18.1,13.92-22.68a54.23,54.23,0,0,1,8.36-7.08A139.48,139.48,0,0,0,254.62,160,194,194,0,0,0,273.47,141,57.28,57.28,0,0,0,277.19,135.8Z"/><path class="cls-4" d="M204.62,216A93.26,93.26,0,0,1,189,232.19a111.46,111.46,0,0,1-11.22,7.71c-2,1.27-4.34,2.75-7.25,4.63-5.62,3.64-11.2,7.42-16.58,11.2a2,2,0,0,1-1.15.36,2,2,0,0,1-1.15-3.59c5.42-3.81,11-7.61,16.7-11.29,2.92-1.88,5.27-3.39,7.29-4.66a107.72,107.72,0,0,0,10.87-7.45,89,89,0,0,0,15-15.52,2,2,0,0,1,3.19,2.38Z"/><path class="cls-4" d="M245.44,139.22a106.8,106.8,0,0,1-22,31.67,110.35,110.35,0,0,1-21,16.17A70.06,70.06,0,0,1,191,192.47c-3.21,1.29-7.21,2.87-14.1,6.23-8.95,4.36-16,7.8-24.31,14-1.38,1-2.77,2.08-4.17,3.22a60.24,60.24,0,0,1,3.09,5.58,2,2,0,0,1-.91,2.64,1.83,1.83,0,0,1-.88.2,2,2,0,0,1-1.79-1.11c-.7-1.45-1.57-3.06-2.6-4.74a55.16,55.16,0,0,0-8,8.69,59.07,59.07,0,0,0-8.69,17,2,2,0,0,1-1.91,1.37,2,2,0,0,1-1.9-2.6,62.76,62.76,0,0,1,9.28-18.09,60.09,60.09,0,0,1,9-9.68,52.36,52.36,0,0,0-13.16-13,51.45,51.45,0,0,0-5.49-3.27,47.49,47.49,0,0,0-3.28,5.24,56.74,56.74,0,0,0-6.75,22.67,2,2,0,0,1-2,1.83h-.18a2,2,0,0,1-1.82-2.14,60.24,60.24,0,0,1,7.23-24.27,51.47,51.47,0,0,1,3.11-5,68.06,68.06,0,0,0-16-4.31c-1.4-.23-2.8-.44-4.19-.57l2.39-3.72c.84.11,1.66.23,2.48.36a71.75,71.75,0,0,1,17.79,4.94,79.37,79.37,0,0,1,12.54-12.1c4.24-3.47,6.62-4.82,13-8.42,3.41-1.95,8.09-4.59,14.9-8.62l4.66-2.75a64.88,64.88,0,0,0-13.55-5.56,74.66,74.66,0,0,0-8.22-2l4.45-3.12c1.68.4,3.34.84,5,1.36a63.25,63.25,0,0,1,16.2,7,139.8,139.8,0,0,0,14.26-9.35c5.41-4.24,12.83-10,19.54-19.74a4,4,0,0,0,.27-.37c-.8-.63-1.61-1.25-2.44-1.85a62.4,62.4,0,0,0-12-6.4c-2.62-1.15-5.3-2.18-8-3.07l2.69-3.28c2.36.81,4.68,1.73,6.95,2.72a65.48,65.48,0,0,1,12.67,6.8c.77.56,1.53,1.11,2.27,1.73a75.6,75.6,0,0,0,7-15,2,2,0,0,1,2.53-1.25,2,2,0,0,1,1.25,2.53,78,78,0,0,1-7.7,16.28,56.11,56.11,0,0,1,8.45,9.74,2,2,0,0,1-.51,2.75,2.13,2.13,0,0,1-1.13.34,2,2,0,0,1-1.66-.87,53.17,53.17,0,0,0-7.34-8.58c-7.07,10.19-14.75,16.19-20.39,20.59a128.86,128.86,0,0,1-13.16,8.73,40.46,40.46,0,0,1,3.31,2.83,48.55,48.55,0,0,1,10.75,14.81,2,2,0,0,1-.94,2.63,2.06,2.06,0,0,1-.86.19,2,2,0,0,1-1.8-1.14,44.49,44.49,0,0,0-14.11-17.12l-6.35,3.78c-6.85,4-11.55,6.7-15,8.65-6.32,3.57-8.45,4.77-12.4,8A79,79,0,0,0,127,195.73a55.17,55.17,0,0,1,5.3,3.19,57.06,57.06,0,0,1,14,13.69c1.36-1.07,2.7-2.09,4-3.06,8.61-6.45,15.82-10,25-14.42,7-3.41,11.09-5,14.37-6.32a68.79,68.79,0,0,0,10.78-5.16,105.42,105.42,0,0,0,20.23-15.57,102.33,102.33,0,0,0,21.23-30.49,2,2,0,0,1,2.66-1A2,2,0,0,1,245.44,139.22Z"/></svg>