<?xml version="1.0" encoding="utf-8"?>
<!-- Generator: Adobe Illustrator 22.0.1, SVG Export Plug-In . SVG Version: 6.00 Build 0)  -->
<svg version="1.1" id="Layer_1" xmlns="http://www.w3.org/2000/svg" xmlns:xlink="http://www.w3.org/1999/xlink" x="0px" y="0px"
	 viewBox="0 0 32 32" style="enable-background:new 0 0 32 32;" xml:space="preserve">
<style type="text/css">
	.st0{fill-rule:evenodd;clip-rule:evenodd;fill:#1BA5B2;}
</style>
<path class="st0" d="M16,32C7.2,32,0,24.8,0,16C0,7.2,7.2,0,16,0c8.8,0,16,7.2,16,16C32,24.8,24.8,32,16,32z M16,1.1
	C7.8,1.1,1.1,7.8,1.1,16S7.8,30.9,16,30.9c8.2,0,14.9-6.7,14.9-14.9C30.9,7.8,24.2,1.1,16,1.1z M26.6,25C26.6,25,26.6,25,26.6,25
	C26.6,25,26.6,25,26.6,25c-0.1,0.1-0.1,0.1-0.1,0.1c0,0,0,0-0.1,0c-0.1,0-0.1,0-0.2,0c-0.1,0-0.1,0-0.2,0c0,0,0,0-0.1,0
	c0,0-0.1,0-0.1-0.1c0,0,0,0,0,0c0,0,0,0,0,0l-4-4c0,0.5,0,1-0.1,1.5l3.2,3.2c0,0,0,0,0,0c0,0,0,0,0,0c0,0,0,0,0,0.1
	c0,0,0,0.1,0.1,0.1c0,0,0,0.1,0,0.1c0,0,0,0.1,0,0.1c0,0,0,0.1,0,0.1c0,0,0,0.1,0,0.1c0,0,0,0.1-0.1,0.1c0,0,0,0,0,0.1c0,0,0,0,0,0
	c0,0,0,0,0,0c-5.5,4.7-13.7,4.4-18.8-0.7S0.8,12.5,5.5,7c0,0,0,0,0,0c0,0,0,0,0,0c0,0,0,0,0.1,0c0,0,0.1,0,0.1-0.1c0,0,0.1,0,0.1,0
	c0,0,0.1,0,0.1,0c0,0,0.1,0,0.1,0c0,0,0.1,0,0.1,0c0,0,0.1,0,0.1,0.1c0,0,0.1,0,0.1,0c0,0,0,0,0,0c0,0,0,0,0,0l3.9,3.9
	c-0.1-0.5-0.1-1,0-1.5L7,6.2c0,0,0,0,0,0c0,0,0,0,0,0c0,0,0,0,0-0.1c0,0,0-0.1-0.1-0.1c0,0,0-0.1,0-0.1c0,0,0-0.1,0-0.1
	c0,0,0-0.1,0-0.1c0,0,0-0.1,0-0.1c0,0,0-0.1,0.1-0.1c0,0,0,0,0-0.1c0,0,0,0,0,0c0,0,0,0,0,0c2.3-1.9,5.1-3.1,8-3.2l0-0.1
	c0.2-0.4,0.5-0.6,0.9-0.6c0.4,0,0.7,0.2,0.9,0.6l0,0c5.2,0.3,9.8,3.6,11.8,8.4C30.8,15.4,30,21,26.6,25z M23.9,26.1l-2.4-2.4
	c-0.1,0.2-0.2,0.3-0.2,0.5c-0.8,1.1-1.9,2-3.2,2.5c-0.1,0-0.2,0.1-0.3,0.1l-1.2,2.1C19.2,28.7,21.8,27.7,23.9,26.1z M16.6,20.8
	c0,0-0.1,0-0.1-0.1c-0.2-0.1-0.3-0.2-0.4-0.3c-0.1,0.1-0.3,0.2-0.4,0.3c0,0-0.1,0-0.1,0.1c0.2,0.2,0.3,0.4,0.5,0.6
	c0,0.1,0.1,0.1,0.1,0.2c0-0.1,0.1-0.1,0.1-0.2C16.2,21.2,16.4,21,16.6,20.8z M16.5,23.5c0,0.3,0,0.7,0,1c0,0.2,0,0.4,0.1,0.6
	c0,0.2,0.2,0.4,0.3,0.5c0.2,0.1,0.5,0.1,0.7,0c1.1-0.4,2-1.1,2.7-2c0.8-1.4,0.4-3.1,0.2-3.9c-0.9,0.2-2.7,0.9-3.5,2.3
	C16.7,22.4,16.6,23,16.5,23.5z M15.5,23.5c0-0.5-0.2-1.1-0.5-1.5c-0.8-1.4-2.7-2-3.5-2.3c-0.2,0.8-0.6,2.6,0.2,3.9
	c0.7,0.9,1.6,1.6,2.7,2c0.2,0.1,0.5,0.1,0.7,0c0.2-0.1,0.3-0.3,0.3-0.5c0-0.2,0.1-0.4,0.1-0.6C15.4,24.2,15.4,23.8,15.5,23.5z
	 M11.7,17.8c0.3,0.5,0.7,0.9,1.1,1.2h0c0.5,0.2,1.1,0.5,1.5,0.8l0,0c0.2,0.1,0.5,0.1,0.7-0.1c0.2-0.1,0.3-0.3,0.3-0.5
	c0-0.2,0.1-0.4,0.1-0.6c0-0.3,0-0.7,0-1c0-0.5-0.2-1.1-0.5-1.5c-0.3-0.5-0.7-0.9-1.2-1.2c-0.5-0.3-0.9-0.6-1.5-0.8
	c-0.2-0.1-0.3-0.1-0.5-0.2c-0.1,0-0.3-0.1-0.4-0.1C11.3,14.7,10.9,16.5,11.7,17.8z M11.7,12.1c0.3,0.5,0.7,0.9,1.1,1.2
	c0.5,0.2,1.1,0.5,1.5,0.8l0,0c0.2,0.1,0.4,0.1,0.6,0c0.2-0.1,0.3-0.3,0.3-0.5c0-0.2,0.1-0.4,0.1-0.6c0-0.3,0-0.7,0-1
	c0-0.5-0.2-1.1-0.5-1.5c-0.8-1.4-2.7-2-3.5-2.3v0C11.3,8.9,10.9,10.7,11.7,12.1z M15.4,15c0.2,0.2,0.3,0.4,0.5,0.6
	c0,0.1,0.1,0.1,0.1,0.2c0-0.1,0.1-0.1,0.1-0.2c0.1-0.2,0.3-0.4,0.5-0.6c0,0-0.1,0-0.1-0.1v0c-0.2-0.1-0.3-0.2-0.4-0.3
	c-0.1,0.1-0.3,0.3-0.4,0.3C15.5,15,15.5,15,15.4,15z M16.5,13c0,0.2,0,0.4,0.1,0.6c0,0.2,0.2,0.4,0.3,0.5c0.2,0.1,0.5,0.1,0.7,0h0
	c0.5-0.3,1-0.6,1.5-0.8c0.5-0.3,0.8-0.7,1.1-1.2c0.8-1.4,0.4-3.1,0.2-3.9c-0.6,0.2-1.3,0.4-1.8,0.8c0,0-0.1,0.1-0.2,0.1
	c-0.6,0.3-1.1,0.8-1.5,1.4c-0.3,0.5-0.4,1-0.5,1.5C16.6,12.3,16.6,12.6,16.5,13z M20.5,13.9c-0.3,0.1-0.6,0.2-0.9,0.3v0
	c-0.5,0.2-1,0.5-1.5,0.8c-0.5,0.3-0.9,0.7-1.2,1.2c-0.3,0.5-0.4,1-0.5,1.5c0,0.3,0,0.7,0,1c0,0.2,0,0.4,0.1,0.6
	c0,0.2,0.2,0.4,0.3,0.4c0.2,0.1,0.5,0.1,0.7,0c0.5-0.3,1-0.6,1.5-0.8c0.5-0.3,0.8-0.7,1.1-1.2C21.1,16.5,20.8,14.7,20.5,13.9z
	 M16,27.6l0.6-1.1c-0.1,0-0.1,0-0.2-0.1c-0.2-0.1-0.3-0.2-0.4-0.3c-0.1,0.1-0.3,0.2-0.4,0.3c-0.1,0-0.1,0.1-0.2,0.1L16,27.6z
	 M5.9,8.1c-1.8,2.2-2.7,5-2.7,7.9c0,6.8,5.4,12.5,12.2,12.8l-1.2-2.1c-0.1,0-0.1,0-0.2-0.1c-1.3-0.4-2.4-1.3-3.2-2.5
	c-1.3-2.3-0.2-5.2-0.1-5.3c0.1-0.1,0.2-0.2,0.3-0.3c0-0.1-0.1-0.1-0.1-0.2c-1.3-2.3-0.2-5.2-0.1-5.3c0,0,0.1-0.1,0.1-0.1L5.9,8.1z
	 M8.2,5.9l2.2,2.2c0.1-0.3,0.1-0.5,0.2-0.8C10.7,7.1,11,6.9,11.2,7c0.6,0.1,1.3,0.3,1.9,0.6c0.3-1.5,0.8-2.9,1.4-4.3
	C12.2,3.5,10,4.4,8.2,5.9z M16,2.7c-1.2,2.4-1.8,4.4-1.8,5.2c0,0.1,0,0.2,0,0.3c0.7,0.4,1.3,1,1.7,1.7C15.9,9.9,16,10,16,10
	c0-0.1,0.1-0.1,0.1-0.2c0.4-0.7,1-1.3,1.7-1.7c0-0.1,0-0.2,0-0.3C17.8,7.1,17.2,5.1,16,2.7z M27.8,11C26,6.7,22,3.8,17.4,3.3
	c0.7,1.4,1.2,2.8,1.4,4.3c0.6-0.3,1.2-0.5,1.9-0.6c0.2,0,0.5,0.1,0.6,0.3c0,0.1,1.2,3-0.1,5.3c0,0.1-0.1,0.1-0.1,0.2
	c0.1,0.1,0.2,0.2,0.3,0.3c0,0.1,1.2,3-0.1,5.3c0,0.1-0.1,0.1-0.1,0.2c0.1,0.1,0.2,0.2,0.3,0.3c0,0,0.1,0.1,0.1,0.3l4.7,4.7h0
	C29,20.1,29.6,15.3,27.8,11z"/>
</svg>
