<svg id="Layer_1" data-name="Layer 1" xmlns="http://www.w3.org/2000/svg" viewBox="0 0 500 500"><defs><style>.cls-1{fill:#d82f23;}.cls-2{fill:#bf100c;}.cls-3{fill:none;stroke:#000;stroke-linecap:round;stroke-linejoin:round;stroke-width:15px;}.cls-4{fill:#74bc17;}.cls-5{fill:#679b16;}</style></defs><title>chilli</title><path class="cls-1" d="M440.5,234.87C286,361.51,99.71,375.51,97.7,322c-1.74-46.65,141.15-76.94,240-182.91,43.14-46.25,83.36-40.6,114.59-2.5C473.71,162.74,475.59,206.1,440.5,234.87Z"/><path class="cls-2" d="M452.28,136.6a105.34,105.34,0,0,0-16.41-16.28c11.62,25.74,7.85,59.42-21.11,83.16C294.67,301.93,155.36,332.29,98.34,315.8A23.21,23.21,0,0,0,97.7,322c2,53.5,188.31,39.5,342.8-87.14C475.59,206.1,473.71,162.74,452.28,136.6Z"/><path class="cls-3" d="M440.5,234.87C286,361.51,99.71,375.51,97.7,322c-1.74-46.65,141.15-76.94,240-182.91,43.14-46.25,83.36-40.6,114.59-2.5C473.71,162.74,475.59,206.1,440.5,234.87Z"/><path class="cls-4" d="M469.27,122.49c-61.52-76.49-127.95,2.9-127.95,2.9l57.94,16.25-7.92,44.75L434.78,185l-1.21,64.39S530.1,198.11,469.27,122.49Z"/><path class="cls-5" d="M469.27,122.49a116.2,116.2,0,0,0-15.13-15.73c22.32,40.35.93,72.45-19.61,91.59l-1,51S530.1,198.11,469.27,122.49Z"/><path class="cls-3" d="M469.27,122.49c-61.52-76.49-127.95,2.9-127.95,2.9l57.94,16.25-7.92,44.75L434.78,185l-1.21,64.39S530.1,198.11,469.27,122.49Z"/><path class="cls-3" d="M491.4,84.4s-3.64,28.06-22.13,38.09"/><path class="cls-1" d="M294.45,207.64C188.09,360.58,24.51,420.55,9.1,373.07c-13.44-41.41,107-105,168.74-225.19C204.76,95.41,242.28,90.25,280,116.47,305.88,134.47,318.61,172.9,294.45,207.64Z"/><path class="cls-2" d="M280,116.47a98.59,98.59,0,0,0-18.86-10.42c17,20.13,22.17,51.3,2.23,80C180.69,304.92,63.44,367.62,8.09,367.34a21,21,0,0,0,1,5.73c15.41,47.48,179-12.49,285.35-165.43C318.61,172.9,305.88,134.47,280,116.47Z"/><path class="cls-3" d="M294.45,207.64C188.09,360.58,24.51,420.55,9.1,373.07c-13.44-41.41,107-105,168.74-225.19C204.76,95.41,242.28,90.25,280,116.47,305.88,134.47,318.61,172.9,294.45,207.64Z"/><path class="cls-4" d="M291.65,99.5c-74.66-53-114,35.16-114,35.16l56.12-.17L238,176.66l38.61-12.34,15.31,58.07S365.47,151.85,291.65,99.5Z"/><path class="cls-5" d="M291.65,99.5a106.85,106.85,0,0,0-17.57-10.26c30.29,30.51,19.27,64.76,5.71,87.16l12.13,46S365.47,151.85,291.65,99.5Z"/><path class="cls-3" d="M291.65,99.5c-74.66-53-114,35.16-114,35.16l56.12-.17L238,176.66l38.61-12.34,15.31,58.07S365.47,151.85,291.65,99.5Z"/><path class="cls-3" d="M318.35,47.38s-2,32.55-26.7,52.12"/><path class="cls-1" d="M397.79,412.29C223.32,477.58,54.67,433.86,69,386c12.5-41.69,147.75-25.43,266.88-89.21,52-27.84,85.79-10.75,101.89,32.28C448.82,358.62,437.42,397.46,397.79,412.29Z"/><path class="cls-2" d="M437.77,329.1a98.76,98.76,0,0,0-9.58-19.31c2.5,26.22-11,54.81-43.67,67-135.63,50.75-267.72,35.62-313.09,3.91A21.8,21.8,0,0,0,69,386c-14.33,47.83,154.32,91.55,328.79,26.26C437.42,397.46,448.82,358.62,437.77,329.1Z"/><path class="cls-3" d="M397.79,412.29C223.32,477.58,54.67,433.86,69,386c12.5-41.69,147.75-25.43,266.88-89.21,52-27.84,85.79-10.75,101.89,32.28C448.82,358.62,437.42,397.46,397.79,412.29Z"/><path class="cls-4" d="M457,321.76c-31.28-86-113.8-35.95-113.8-35.95l46.25,31.78L369,354.71l38.78,11.81L387.32,423S487.94,406.82,457,321.76Z"/><path class="cls-5" d="M457,321.76a107.3,107.3,0,0,0-8.62-18.43c7.55,42.33-21,64.22-44.88,74.93L387.32,423S487.94,406.82,457,321.76Z"/><path class="cls-3" d="M457,321.76c-31.28-86-113.8-35.95-113.8-35.95l46.25,31.78L369,354.71l38.78,11.81L387.32,423S487.94,406.82,457,321.76Z"/><path class="cls-3" d="M486.39,307.5,457,321.76"/></svg>